<svg width="20" height="20" viewBox="0 0 20 20" fill="none" xmlns="http://www.w3.org/2000/svg">
<g clip-path="url(#clip0_563_2324)">
<path d="M7.58089 11.6704C7.58089 12.7229 8.43412 13.5761 9.48661 13.5761H11.0112C12.0637 13.5761 12.9169 12.7229 12.9169 11.6704C12.9169 10.6179 12.0637 9.76465 11.0112 9.76465H9.48661C8.43412 9.76465 7.58089 8.91142 7.58089 7.85893C7.58089 6.80644 8.43412 5.95321 9.48661 5.95321H11.0112C12.0637 5.95321 12.9169 6.80644 12.9169 7.85893M10.2489 5.95321V3.66635M10.2489 15.8629V13.5761M18.5441 1.64125L14.7472 1.97346M14.7472 1.97346L15.0794 5.77037M14.7472 1.97346C17.4353 3.52883 19.2439 6.43555 19.2439 9.76465C19.2439 14.7324 15.2167 18.7596 10.2489 18.7596M1.95372 17.888L5.75064 17.5558M5.75064 17.5558L5.41844 13.7589M5.75064 17.5558C3.06247 16.0005 1.25391 13.0937 1.25391 9.76465C1.25391 4.79686 5.28111 0.769653 10.2489 0.769653" stroke="black" stroke-width="0.975728" stroke-miterlimit="10"/>
</g>
<defs>
<clipPath id="clip0_563_2324">
<rect width="19.5146" height="19.5146" fill="white" transform="translate(0.492188 0.00732422)"/>
</clipPath>
</defs>
</svg>
