<svg width="20" height="20" viewBox="0 0 20 20" fill="none" xmlns="http://www.w3.org/2000/svg">
<g clip-path="url(#clip0_198_9749)">
<mask id="mask0_198_9749" style="mask-type:luminance" maskUnits="userSpaceOnUse" x="0" y="0" width="21" height="20">
<path d="M20.0068 0.121399H0.492188V19.636H20.0068V0.121399Z" fill="white"/>
</mask>
<g mask="url(#mask0_198_9749)">
<mask id="mask1_198_9749" style="mask-type:luminance" maskUnits="userSpaceOnUse" x="0" y="0" width="21" height="20">
<path d="M0.492188 0.121426H20.0067V19.636H0.492188V0.121426Z" fill="white"/>
</mask>
<g mask="url(#mask1_198_9749)">
<path d="M16.7452 3.38352C15.083 1.72128 12.7866 0.693141 10.25 0.693141C5.17699 0.693141 1.06445 4.80564 1.06445 9.87871C1.06445 14.9517 5.17699 19.0643 10.25 19.0643C15.3231 19.0643 19.4356 14.9517 19.4356 9.87871" stroke="black" stroke-width="0.975728" stroke-miterlimit="10" stroke-linecap="round" stroke-linejoin="round"/>
<path d="M16.7451 1.21847V3.38352L14.5801 3.76611" stroke="black" stroke-width="0.975728" stroke-miterlimit="10" stroke-linecap="round" stroke-linejoin="round"/>
<path d="M13.6809 14.0713H6.82031V8.73528H13.6809V14.0713Z" stroke="black" stroke-width="0.975728" stroke-miterlimit="10" stroke-linecap="round" stroke-linejoin="round"/>
<path d="M10.2509 4.16153C8.8826 4.16153 7.77344 5.2707 7.77344 6.63897V8.73526H12.7283V6.63897C12.7283 5.2707 11.6191 4.16153 10.2509 4.16153Z" stroke="black" stroke-width="0.975728" stroke-miterlimit="10" stroke-linecap="round" stroke-linejoin="round"/>
<path d="M9.86914 11.4033H10.6314" stroke="black" stroke-width="0.975728" stroke-miterlimit="10" stroke-linecap="round" stroke-linejoin="round"/>
</g>
</g>
</g>
<defs>
<clipPath id="clip0_198_9749">
<rect width="19.5146" height="19.5146" fill="white" transform="translate(0.492188 0.121399)"/>
</clipPath>
</defs>
</svg>
